PathFileType	4	(X/Y/Z)	OpenSim_Sub05_CSStiffKnee_Accel.trc
DataRate	CameraRate	NumFrames	NumMarkers	Units	OrigDataRate	OrigDataStartFrame	OrigNumFrames
100	100	37	8	m	100	8437	11248
Frame#	Time	torso_imu_offset_imu	pelvis_imu_offset_imu	tibia_r_imu_offset_imu	femur_r_imu_offset_imu	tibia_l_imu_offset_imu	femur_l_imu_offset_imu	toes_r_imu_offset_imu	toes_l_imu_offset_imu
				X1	Y1	Z1	X2	Y2	Z2	X3	Y3	Z3	X4	Y4	Z4	X5	Y5	Z5	X6	Y6	Z6	X7	Y7	Z7	X8		Y8	Z8	

8437	84.36000000	7.67470785	0.71646931	5.82883129	8.16591288	-0.78897201	4.01764113	15.05703308	-4.62041275	4.34761772	9.26862752	-3.48565867	2.82371401	11.71573118	-6.93888141	1.59717484	11.34581053	-1.04812908	0.47336741	6.10194227	0.06990027	10.18141705	21.60566452	-2.61136946	21.87202941
8438	84.37000000	8.16208305	1.00825419	6.15394213	8.50896324	-1.90447390	4.71754499	15.61302682	-2.75414982	4.75976867	9.47551662	-3.74025955	3.09325276	11.86811344	-7.43897000	2.34206742	16.22516736	-0.51470646	1.62181669	6.21147511	0.31749187	10.72023176	13.31759935	-4.90661619	23.18953637
8439	84.38000000	9.02118806	1.38844456	6.70498743	9.01283814	-3.21079888	5.15950891	17.22898723	-1.69107475	3.89731074	9.31168050	-3.20509538	4.94928805	14.68677656	-4.61512685	6.85022732	18.68105699	-0.19439994	2.26319682	7.07740942	0.34103936	11.88434753	2.58204712	-4.88817261	13.47876869
8440	84.39000000	9.62381320	1.82798896	6.96884028	9.52371980	-4.11730469	4.97054674	19.16993285	-5.08875218	2.73587701	9.55984886	-1.63142418	6.62744301	13.02759044	-3.75754424	6.89982539	15.17333220	-1.17794189	2.49163467	9.54217006	-2.58585054	13.15453374	7.09598795	4.39490055	15.33711529
8441	84.40000000	9.18766515	2.24215849	6.56638108	10.05596204	-4.04558598	4.94001013	19.62324709	-9.54141285	2.26837472	10.37216815	-0.43918531	6.13572716	9.00940585	-4.48343744	3.18046415	10.95202428	-2.47299899	2.63607976	10.95622594	-4.43217364	12.62202801	8.65043652	3.52861333	14.18566613
8442	84.41000000	7.95163636	2.78127297	6.00569016	10.36338080	-3.10236663	4.76525888	17.96544017	-8.94351014	0.54033536	10.57502214	0.18280764	4.77949725	8.82722982	-3.07079177	-0.46447044	9.82158222	-2.27243703	2.31508256	15.56839179	-5.12877638	12.30191322	4.93223499	-1.56087680	10.67347986
8443	84.42000000	7.04602632	3.55155889	5.57605904	10.16865525	-1.86708964	4.32058497	15.35817962	-5.00820636	-1.63029039	10.37156805	0.41455675	3.23014049	9.07888614	-3.39605148	-1.90229097	8.91326284	-1.26918354	1.16030826	20.29015547	-7.24540070	12.00820673	5.04135717	1.96286451	11.65749606
8444	84.43000000	6.81539950	4.20342370	5.49339608	9.80244108	-0.77317033	3.99008937	12.49806440	-0.05005535	-2.67977740	10.66868065	0.11737760	2.00101393	9.39637664	-3.57971743	-0.96093282	8.15549180	-0.67075619	-0.30192472	18.52077483	-8.02696530	9.80454077	6.11275308	4.87788084	11.03065215
8445	84.44000000	7.17291293	4.51796643	5.78740429	9.22961256	-0.20621643	3.64709519	9.68428359	5.49385382	-3.33899299	11.18624085	-0.60055216	1.44042644	10.03152618	-1.83941169	-1.68843564	9.11743470	-0.67801634	-1.57819738	16.36343301	-7.21807523	9.34682935	6.26439874	3.77532012	10.39115421
8446	84.45000000	8.06268552	4.50861085	6.12961752	8.64552133	-0.36265146	3.42530899	7.76444365	9.75505439	-3.03901777	11.60210993	-2.42563444	0.97859621	10.02356313	-2.34522781	-4.07865899	10.01272065	-1.34606868	-2.50541075	11.86865181	-4.79755167	9.50783096	5.32308720	3.40133083	11.15497661
8447	84.46000000	9.08686011	4.20828219	6.39828512	8.62348564	-1.14843774	3.32191396	6.75747382	13.54298431	-2.58628907	12.08754217	-4.78722528	1.56785949	10.45940180	-3.88161292	-3.73930453	9.72794058	-1.89009541	-2.60306924	8.09020744	-3.43162650	17.28189253	4.54358960	4.07473157	11.39845708
8448	84.47000000	9.87652428	3.76536726	6.64329673	9.23455624	-2.08302195	3.27790404	5.45047246	17.15964733	-2.91880656	13.04095964	-6.08939777	3.09005096	10.98057218	-2.94985152	-2.43382566	9.58534103	-1.52423392	-2.29493518	6.94188057	-5.93803494	23.77330504	5.19787253	3.79018878	11.31745131
8449	84.48000000	10.42173603	3.39967604	6.88164634	10.15446401	-2.67520046	3.27403139	3.43115387	15.99326322	-4.20253678	13.31672088	-6.31854589	4.15011742	10.29775450	-1.67689101	-2.47400596	9.67880265	-1.06800080	-1.99190467	2.08929918	-8.36333358	18.42750370	5.07361717	3.08529732	11.22490807
8450	84.49000000	10.82938361	3.10388496	6.95924129	11.13634320	-2.89926697	3.24996214	2.11207370	10.18781258	-1.18071981	12.34988235	-6.07508467	4.40595223	9.92720372	-1.27391481	-1.83155877	9.63478297	-1.30659927	-1.27629363	0.77096625	-9.45560984	16.26683934	5.09840156	2.84367521	11.23066342
8451	84.50000000	11.04032340	2.69215437	6.95595837	11.82479144	-2.62740855	3.24691916	1.97466632	5.58583241	1.32065610	11.10664711	-5.18497482	4.20969603	10.31174512	-1.40544313	-0.92591424	9.75316995	-1.31387298	-0.97056918	-1.46388091	-7.99332068	15.21964534	5.43369860	2.58355797	11.15649512
8452	84.51000000	10.73971529	2.19183857	6.86505312	11.99655478	-2.07842095	3.21420145	2.12685138	3.52878857	-1.46568359	9.83406360	-3.93142345	4.01070416	10.19272856	-2.33766417	-0.97770616	9.89591035	-1.20307592	-0.95769976	-5.00808418	-4.61849873	12.89789085	5.26422928	2.18192717	11.02352198
8453	84.52000000	10.00839944	1.80698437	6.73315904	11.61222194	-1.67354840	3.08933253	2.14821266	1.87854071	-1.24613636	8.42302101	-2.71829327	3.78219783	9.89680875	-2.78504467	-1.22098800	9.72240178	-1.15554258	-0.74665314	-3.58231199	-4.07249780	12.12366516	5.13666354	2.08554861	11.17780635
8454	84.53000000	9.29394846	1.60173307	6.64399536	10.88315211	-1.63692747	2.88109406	1.27206900	0.74487761	1.06244737	7.39018675	-1.86153772	3.49293990	9.56873292	-2.41665491	-0.96432321	9.42264079	-0.96060453	-0.59713104	-3.35937700	-3.74252357	11.05213228	4.95322605	2.22800276	11.22645926
8455	84.54000000	8.76626135	1.53736061	6.66006941	10.27216163	-1.82427449	2.79254259	-0.04884215	0.89483735	1.50263997	7.06183313	-1.58500673	3.44456546	9.49139944	-1.78291543	-0.71450142	9.41691344	-0.86257718	-0.41257369	-2.67260788	-3.31558806	10.08745585	4.84186102	2.26748810	11.02789038
8456	84.55000000	8.49442179	1.81559287	6.74426102	9.69606863	-2.06149607	2.81583883	-0.37997451	1.18868586	1.67249024	7.14350460	-1.63114397	3.60745276	9.62697295	-1.12943136	-0.61397898	9.35397796	-0.63296224	-0.21474783	-1.70372036	-2.83140533	9.24015557	4.67205714	2.22245760	11.03148086
8457	84.56000000	8.11179276	2.23474926	6.66188027	9.14559924	-2.23500449	2.83297373	0.61208095	1.51043519	2.15114567	7.33614908	-1.86368063	3.64722261	9.60277000	-0.46014562	-0.49828989	9.21762573	-0.50705424	-0.07861898	-0.91408931	-1.96783063	8.82611877	4.68214504	2.27726577	10.87137605
8458	84.57000000	7.73182830	2.50229307	6.61008215	8.72402743	-2.30661535	2.71169337	2.12151806	2.47843373	1.83405169	7.35906108	-2.07242490	3.72452443	9.55229378	-0.07474029	-0.29928295	9.19209611	-0.41952369	-0.16915987	0.85539945	-1.34612893	8.97991511	4.89020733	2.32463658	10.88635655
8459	84.58000000	7.56435719	2.68749184	6.56640452	8.47127291	-2.14378686	2.55849104	3.34399929	3.38253262	1.38426070	7.15572946	-2.09414991	3.91389894	9.46484612	-0.43963722	-0.32552943	9.32874332	-0.38856363	-0.38101790	3.00380610	-1.09456718	9.37228018	4.94579716	2.07332617	10.86421300
8460	84.59000000	7.51062959	2.78656005	6.46239053	8.59475931	-1.94831947	2.42831710	4.19326425	4.29259466	1.52837227	6.86899157	-1.89836411	4.09557921	9.50553100	-1.20710381	-0.40288508	9.42820512	-0.40962065	-0.48403314	5.04247698	-1.14703700	9.81807219	5.10444616	2.02588673	10.76375309
8461	84.60000000	7.52490147	2.93475819	6.40781047	8.76309136	-1.70531100	2.27554005	4.66017157	4.93503848	1.52194048	6.64554890	-1.51481755	4.07651024	9.51340787	-1.94195090	-0.47187923	9.37568597	-0.21354951	-0.49493378	6.51855646	-1.15192620	9.95687832	5.01712219	2.08744105	10.93132263
8462	84.61000000	7.52419305	3.07491818	6.40013608	8.87603774	-1.46865629	2.15205031	4.83523684	5.12448755	1.54338782	6.36886347	-0.97858845	3.96785745	9.42188988	-2.52351733	-0.60042836	9.45706214	-0.04169482	-0.42801661	7.38411329	-0.83384833	9.79145153	4.65884382	2.11799684	11.15818376
8463	84.62000000	7.62462770	3.10613972	6.46016757	9.00681279	-1.53758873	1.99858872	5.27359021	4.98031320	1.94483813	6.04334422	-0.45773155	3.73111796	9.45538424	-2.93120488	-0.61607532	9.58959121	-0.11542432	-0.30255416	7.82453999	-0.26284362	9.60104930	4.90020676	2.04575860	11.05462870
8464	84.63000000	7.74840713	3.09617433	6.55146703	9.08233110	-1.49387230	1.95535158	6.21215795	4.42418827	2.21032704	5.76019290	-0.01350649	3.47452308	9.52705553	-3.02564963	-0.50939923	9.42881663	-0.27220626	-0.02540151	8.49316413	-0.21795118	9.66392238	5.33262912	1.95126016	10.90675095
8465	84.64000000	7.87035613	3.07469248	6.70629120	9.23353081	-1.39799644	1.87011095	7.78355822	4.35836746	2.11467246	5.53964717	0.37151026	3.47114473	9.42981314	-3.10497274	-0.42779951	9.25636103	-0.40084501	0.13287056	10.21455687	-1.02811477	9.71374257	5.40150024	1.87236053	10.79181339
8466	84.65000000	8.02073208	3.04897025	6.81394218	9.26984767	-1.37209657	1.74796185	9.37641288	4.96513337	1.45271999	5.34322518	0.63028307	3.64375974	9.36051117	-3.08497917	-0.44076985	9.20039402	-0.49017732	-0.01167747	12.18818175	-1.79499799	9.74839711	5.07525218	1.83810221	10.85697599
8467	84.66000000	8.08286129	3.03036615	6.91168181	9.18460475	-1.25417930	1.77446001	10.22572962	5.69684219	1.24676045	5.40201698	0.41533860	4.09828381	9.51813218	-2.79166382	-0.32371808	9.41583764	-0.62127134	-0.02666092	14.80155022	-2.36330216	9.46487774	4.88819467	2.02427999	10.98907565
8468	84.67000000	8.06496875	3.04358629	7.00743880	8.98726570	-1.16752711	1.88271348	11.45908739	5.47559174	-0.10193130	5.70538778	-1.03532606	4.20802012	9.81788272	-2.39634429	-0.34933882	9.91315553	-0.61802070	0.00899740	17.80924333	-2.37175639	8.26642820	4.91662687	2.07551896	11.01500353
8469	84.68000000	8.00949022	3.06013293	6.96971122	8.65361195	-1.27860164	1.97108908	13.28658444	5.18648571	-1.83542474	6.01286917	-3.50703495	4.26101132	9.94071231	-2.19097014	-0.51772939	10.20397571	-0.29900224	-0.00396343	20.10987616	-2.01639342	6.08589123	4.91938972	1.88803343	10.98360125
8470	84.69000000	7.89417539	3.11517625	6.83548758	8.45035299	-1.55602920	1.86301056	13.48686408	6.48385753	-2.09013885	6.74678418	-6.21855074	4.70337186	9.94346778	-1.93797839	-0.63752523	9.98853486	0.31369928	0.04026983	21.38067598	-2.33007931	2.73639905	4.78279839	1.92411868	11.00126687
8471	84.70000000	7.72567374	3.09730570	6.51697258	8.41800372	-1.90104656	1.71003343	12.05050825	7.41449814	-0.79268838	7.96154861	-8.82856456	5.24069412	9.88938481	-0.92806444	-0.79296405	9.37027298	0.93875872	0.10858487	21.82233402	-2.36999697	-0.60867752	4.49112548	2.28837834	11.10519941
8472	84.71000000	7.59246329	3.04991344	6.27725998	8.54291752	-2.23892254	1.43609010	11.47395944	7.95049201	1.03390845	9.28458810	-10.38453987	6.52817717	9.89411985	0.75678476	-0.90957081	8.84323161	1.36503744	-0.11201944	23.06561143	-1.04330982	-2.93019842	4.62757733	2.58975646	11.02600788
8473	84.72000000	7.68960985	3.11101466	6.30375476	8.78650458	-2.34795427	1.25181703	11.22526376	9.28726394	-0.36923505	9.84619785	-9.89004271	7.50938732	10.13467191	1.82136124	-0.85321133	8.90213958	1.46194438	-0.51334197	25.18818236	0.43598873	-5.10392813	4.86196858	2.78654470	10.93880481
